HIERARCHY
ROOT joint_0
{
	OFFSET 0.000000 0.000000 0.000000
	CHANNELS 6 Xposition Yposition Zposition Zrotation Yrotation Xrotation 
	JOINT joint_1
	{
		OFFSET 6.579712 -2.778931 100.531982
		CHANNELS 3 Zrotation Yrotation Xrotation
		JOINT joint_2
		{
			OFFSET -3.313232 -1.302856 91.974976
			CHANNELS 3 Zrotation Yrotation Xrotation
			JOINT joint_3
			{
				OFFSET -3.421509 -1.641846 91.864014
				CHANNELS 3 Zrotation Yrotation Xrotation
				JOINT joint_4
				{
					OFFSET 7.697388 -4.642578 123.278931
					CHANNELS 3 Zrotation Yrotation Xrotation
					JOINT joint_5
					{
						OFFSET 24.842529 -5.941528 79.695068
						CHANNELS 3 Zrotation Yrotation Xrotation
						End Site
						{
							OFFSET 0.000000 0.000000 0.000000
						}
					}
				}
				JOINT joint_6
				{
					OFFSET -0.159668 -29.112976 68.364014
					CHANNELS 3 Zrotation Yrotation Xrotation
					JOINT joint_7
					{
						OFFSET -18.356079 -115.987061 -20.069092
						CHANNELS 3 Zrotation Yrotation Xrotation
						JOINT joint_8
						{
							OFFSET 31.719482 -11.733276 -267.170898
							CHANNELS 3 Zrotation Yrotation Xrotation
							JOINT joint_9
							{
								OFFSET 29.329956 -5.879517 -234.654053
								CHANNELS 3 Zrotation Yrotation Xrotation
								End Site
								{
									OFFSET 0.000000 0.000000 0.000000
								}
							}
						}
					}
				}
				JOINT joint_10
				{
					OFFSET 8.802979 23.897949 69.798950
					CHANNELS 3 Zrotation Yrotation Xrotation
					JOINT joint_11
					{
						OFFSET 21.159058 115.524292 -19.981934
						CHANNELS 3 Zrotation Yrotation Xrotation
						JOINT joint_12
						{
							OFFSET 18.809204 5.403442 -268.593018
							CHANNELS 3 Zrotation Yrotation Xrotation
							JOINT joint_13
							{
								OFFSET 20.807861 0.421265 -235.639038
								CHANNELS 3 Zrotation Yrotation Xrotation
								End Site
								{
									OFFSET 0.000000 0.000000 0.000000
								}
							}
						}
					}
				}
			}
		}
	}
	JOINT joint_14
	{
		OFFSET -9.713379 -79.513916 -99.348022
		CHANNELS 3 Zrotation Yrotation Xrotation
		JOINT joint_15
		{
			OFFSET -40.607788 -6.518372 -502.938019
			CHANNELS 3 Zrotation Yrotation Xrotation
			JOINT joint_16
			{
				OFFSET -19.807617 -7.437378 -399.590012
				CHANNELS 3 Zrotation Yrotation Xrotation
				JOINT joint_17
				{
					OFFSET 171.701660 -44.751282 -77.782000
					CHANNELS 3 Zrotation Yrotation Xrotation
					End Site
					{
						OFFSET 0.000000 0.000000 0.000000
					}
				}
			}
		}
	}
	JOINT joint_18
	{
		OFFSET 17.854858 79.618652 -98.128052
		CHANNELS 3 Zrotation Yrotation Xrotation
		JOINT joint_19
		{
			OFFSET -24.848877 16.861816 -503.722992
			CHANNELS 3 Zrotation Yrotation Xrotation
			JOINT joint_20
			{
				OFFSET -30.162476 14.470093 -398.750008
				CHANNELS 3 Zrotation Yrotation Xrotation
				JOINT joint_21
				{
					OFFSET 176.096680 -10.987549 -80.021000
					CHANNELS 3 Zrotation Yrotation Xrotation
					End Site
					{
						OFFSET 0.000000 0.000000 0.000000
					}
				}
			}
		}
	}
}
MOTION
Frames: 5
Frame Time: 0.016667
-1961.565918 822.699524 1063.625000 11.553748 9.111536 2.938588 -2.737286 -5.098952 5.337169 -3.797879 0.675399 -1.362916 -3.573462 -1.019077 0.908940 -2.213750 -11.550523 5.907616 0.000000 0.000000 0.000000 -3.963568 -3.647468 -9.308499 -21.444764 -4.592006 -4.330483 175.413304 -69.804398 -125.210171 0.000000 0.000000 0.000000 9.286580 1.826042 9.282314 13.391579 6.512344 9.182274 -173.103339 -51.262274 155.524705 0.000000 0.000000 0.000000 1.436444 -20.709992 -13.561118 -4.814060 32.322495 4.312965 -3.520054 -13.587401 -4.990524 0.000000 0.000000 0.000000 -4.070723 -18.636454 8.910279 -2.680661 60.013364 -1.980766 1.980751 11.191887 1.303286 0.000000 0.000000 0.000000 
-1946.815186 819.666077 1066.430054 12.337312 9.752193 3.175426 -2.134183 -5.441800 5.077744 -3.763691 0.662998 -1.318526 -3.618732 -1.033067 0.897451 -2.312546 -11.258791 6.131363 0.000000 0.000000 0.000000 -3.799114 -3.768894 -9.722599 -23.045254 -4.664033 -3.493895 174.299298 -68.342386 -123.841508 0.000000 0.000000 0.000000 9.123450 -0.283329 8.836298 12.606739 5.828727 8.350763 -173.323433 -52.432805 155.360397 0.000000 0.000000 0.000000 1.370830 -20.048839 -13.274723 -5.129665 31.499087 4.034291 -3.877427 -13.308616 -5.056764 0.000000 0.000000 0.000000 -3.634336 -21.473436 9.291035 -2.697418 62.232885 -2.743886 3.623653 7.569588 1.870849 0.000000 0.000000 0.000000 
-1932.057129 817.237366 1069.743042 12.903286 9.891886 3.284574 -1.755939 -5.266157 4.922346 -3.626303 0.635706 -1.283263 -3.520688 -0.981462 0.878804 -2.393848 -11.021466 6.320079 0.000000 0.000000 0.000000 -3.615227 -3.963530 -10.035457 -23.972440 -4.738467 -2.689776 173.489467 -67.687211 -123.394527 0.000000 0.000000 0.000000 8.846639 -2.151362 8.498734 11.837288 5.240809 7.381526 -173.578249 -53.764172 155.345947 0.000000 0.000000 0.000000 1.253507 -18.841748 -12.875496 -5.293286 30.544904 3.808093 -4.075524 -12.758614 -4.988839 0.000000 0.000000 0.000000 -3.212368 -23.712304 9.535470 -2.640116 63.845221 -3.251564 5.043382 4.331532 2.389204 0.000000 0.000000 0.000000 
-1917.269165 815.237610 1073.652954 13.210545 9.018404 3.060480 -1.963339 -3.993208 5.104999 -3.278295 0.562947 -1.266107 -3.083566 -0.788303 0.860454 -2.438065 -10.957014 6.401162 0.000000 0.000000 0.000000 -3.319235 -4.317305 -10.127653 -23.737575 -4.883968 -2.009214 173.202095 -68.357949 -124.577209 0.000000 0.000000 0.000000 8.346823 -3.656237 8.405050 11.046789 4.821790 6.207831 -173.945249 -55.428271 155.799440 0.000000 0.000000 0.000000 0.971748 -16.515439 -12.106365 -5.229583 29.420155 3.605953 -4.027003 -11.872577 -4.736689 0.000000 0.000000 0.000000 -2.952568 -24.870343 9.846702 -2.490538 64.849933 -3.395347 6.431678 2.087453 2.875850 0.000000 0.000000 0.000000 
-1902.475586 813.841431 1078.071045 13.325530 7.619557 2.720252 -2.477780 -2.130903 5.321956 -2.801337 0.437795 -1.209319 -2.458730 -0.534447 0.831343 -2.469235 -10.934330 6.422089 0.000000 0.000000 0.000000 -2.989479 -4.725379 -10.112289 -22.705373 -5.118371 -1.396479 173.317931 -69.858887 -126.897151 0.000000 0.000000 0.000000 7.720761 -4.982120 8.502279 10.272894 4.503515 4.911661 -174.343675 -57.197407 156.463874 0.000000 0.000000 0.000000 0.591765 -13.603106 -11.273208 -4.965105 28.123351 3.440690 -3.782008 -10.661811 -4.323249 0.000000 0.000000 0.000000 -2.710123 -25.386599 10.070762 -2.201187 65.207936 -3.286749 7.865179 0.197825 3.320153 0.000000 0.000000 0.000000 
